<svg width="8" height="8" viewBox="0 0 8 8" fill="none" xmlns="http://www.w3.org/2000/svg">
<g clip-path="url(#clip0)">
<path d="M7.72958 1.57577L5.30563 3.99998L7.72958 6.42407C8.09013 6.78476 8.09013 7.36903 7.72958 7.72971C7.54943 7.90986 7.31324 8.00001 7.07717 8.00001C6.8407 8.00001 6.60449 7.91 6.42448 7.72971L4.00001 5.30535L1.57571 7.72969C1.39559 7.90984 1.15938 7.99998 0.923097 7.99998C0.686887 7.99998 0.450837 7.90998 0.270551 7.72969C-0.0899998 7.36916 -0.0899998 6.78487 0.270551 6.42405L2.69443 3.99996L0.270413 1.57577C-0.0901376 1.21522 -0.0901376 0.630818 0.270413 0.270268C0.630894 -0.0900078 1.21495 -0.0900078 1.57557 0.270268L3.99998 2.69447L6.42421 0.270268C6.7849 -0.0900078 7.36903 -0.0900078 7.72944 0.270268C8.09013 0.630818 8.09013 1.21522 7.72958 1.57577Z" fill="white"/>
</g>
<defs>
<clipPath id="clip0">
<rect width="7.99998" height="8" fill="white"/>
</clipPath>
</defs>
</svg>
