<svg width="18" height="18" viewBox="0 0 18 18" fill="none" xmlns="http://www.w3.org/2000/svg">
<g clip-path="url(#clip0)">
<path d="M7.35092 8.9854L0.34207 15.9945C-0.114054 16.4504 -0.114054 17.1875 0.34207 17.6434C0.797981 18.0993 1.53512 18.0993 1.99104 17.6434L9.0001 10.6344L16.0089 17.6434C16.4651 18.0993 17.202 18.0993 17.6579 17.6434C18.114 17.1875 18.114 16.4504 17.6579 15.9945L10.6491 8.9854L17.6579 1.97635C18.114 1.52044 18.114 0.783295 17.6579 0.327383C17.4307 0.0999622 17.132 -0.0142823 16.8334 -0.0142823C16.5349 -0.0142824 16.2364 0.0999621 16.0089 0.327383L9.0001 7.33644L1.99104 0.327382C1.76361 0.0999608 1.46508 -0.0142837 1.16655 -0.0142837C0.868023 -0.0142837 0.569494 0.0999607 0.342071 0.327381C-0.114052 0.783293 -0.114052 1.52044 0.342071 1.97635L7.35092 8.9854Z" fill="#222222"/>
</g>
<defs>
<clipPath id="clip0">
<rect width="18" height="18" fill="white" transform="translate(18 18) rotate(-180)"/>
</clipPath>
</defs>
</svg>
