<svg width="10" height="10" viewBox="0 0 10 10" fill="none" xmlns="http://www.w3.org/2000/svg">
<g clip-path="url(#clip0)">
<path d="M2.2221 5.3902L6.67223 9.84025C6.77515 9.94325 6.91255 10 7.05905 10C7.20555 10 7.34295 9.94325 7.44588 9.84025L7.7736 9.51261C7.98685 9.29911 7.98685 8.95212 7.7736 8.73895L4.03672 5.00207L7.77775 1.26105C7.88067 1.15804 7.9375 1.02072 7.9375 0.874302C7.9375 0.727717 7.88067 0.590401 7.77775 0.487312L7.45003 0.159754C7.34702 0.0567474 7.2097 -6.36262e-08 7.0632 -7.64339e-08C6.9167 -8.92416e-08 6.7793 0.0567473 6.67637 0.159754L2.2221 4.61386C2.11893 4.7172 2.06226 4.85516 2.06259 5.00183C2.06226 5.14906 2.11893 5.28695 2.2221 5.3902Z" fill="black"/>
</g>
<defs>
<clipPath id="clip0">
<rect width="10" height="10" fill="white" transform="translate(10 10) rotate(-180)"/>
</clipPath>
</defs>
</svg>
